# xmcd
#
# Track frame offsets:
#	150
#	14637
#	34840
#	50567
#	78467
#	93672
#	129675
#	131415
#	166032
#	192070
#	215082
#	236130
#	269097
#	294740
#	309050
#
# Disc length: 4411 seconds
#
# Revision: 1
# Processed by: cddbd v1.5.2PL0 Copyright (c) Steve Scherf et al.
# Submitted via: audiograbber 1.83.01
#
DISCID=dd11390f
DTITLE=Grateful Dead - 73-04-02 Boston Garden, Boston MA
DYEAR=1900
DGENRE=
TTITLE0=Promised Land
TTITLE1=Deal
TTITLE2=Mexicali Blues
TTITLE3=Brown-Eyed Women
TTITLE4=BIODTL
TTITLE5=Row Jimmy
TTITLE6=Bobby's Spider Rap
TTITLE7=Looks Like Rain
TTITLE8=Wave That Flag
TTITLE9=Box Of Rain
TTITLE10=Big River
TTITLE11=China Cat Sunflower
TTITLE12=I Know You Rider
TTITLE13=You Ain't Woman Enough
TTITLE14=Jack Straw
EXTD=
EXTT0=
EXTT1=
EXTT2=
EXTT3=
EXTT4=
EXTT5=
EXTT6=
EXTT7=
EXTT8=
EXTT9=
EXTT10=
EXTT11=
EXTT12=
EXTT13=
EXTT14=
PLAYORDER=
